<svg width="20" height="20" viewBox="0 0 20 20" fill="none" xmlns="http://www.w3.org/2000/svg">
<g clip-path="url(#clip0_17_2)">
<path d="M1.31024 -0.137932H18.6896C19.1285 -0.137932 19.5495 0.0655158 19.8599 0.427655C20.1703 0.789794 20.3447 1.28096 20.3447 1.7931V18.2069C20.3447 18.719 20.1703 19.2102 19.8599 19.5723C19.5495 19.9345 19.1285 20.1379 18.6896 20.1379H1.31024C0.871264 20.1379 0.450265 19.9345 0.13986 19.5723C-0.170545 19.2102 -0.344929 18.719 -0.344929 18.2069V1.7931C-0.344929 1.28096 -0.170545 0.789794 0.13986 0.427655C0.450265 0.0655158 0.871264 -0.137932 1.31024 -0.137932V-0.137932ZM7.513 10.6826L11.3166 15.1211C11.3933 15.2111 11.4844 15.2825 11.5848 15.3312C11.6853 15.3799 11.7929 15.405 11.9017 15.405C12.0104 15.405 12.1181 15.3799 12.2185 15.3312C12.3189 15.2825 12.4101 15.2111 12.4868 15.1211C12.5637 15.0315 12.6247 14.9251 12.6664 14.808C12.708 14.6908 12.7294 14.5653 12.7294 14.4385C12.7294 14.3117 12.708 14.1861 12.6664 14.069C12.6247 13.9519 12.5637 13.8454 12.4868 13.7559L9.26831 10L12.4868 6.2451C12.5636 6.15546 12.6246 6.04904 12.6662 5.93191C12.7077 5.81479 12.7292 5.68926 12.7292 5.56248C12.7292 5.43571 12.7077 5.31017 12.6662 5.19305C12.6246 5.07593 12.5636 4.9695 12.4868 4.87986C12.41 4.79022 12.3187 4.71911 12.2183 4.67059C12.118 4.62208 12.0104 4.59711 11.9017 4.59711C11.793 4.59711 11.6854 4.62208 11.585 4.67059C11.4846 4.71911 11.3934 4.79022 11.3166 4.87986L7.513 9.31738C7.43608 9.40697 7.37506 9.51337 7.33342 9.6305C7.29178 9.74763 7.27035 9.87319 7.27035 10C7.27035 10.1268 7.29178 10.2524 7.33342 10.3695C7.37506 10.4866 7.43608 10.593 7.513 10.6826V10.6826Z" fill="black"/>
</g>
<defs>
<clipPath id="clip0_17_2">
<rect width="20" height="20" fill="white" transform="matrix(-1 0 0 1 20 0)"/>
</clipPath>
</defs>
</svg>
