<svg width="48" height="48" viewBox="0 0 48 48" fill="none" xmlns="http://www.w3.org/2000/svg">
<path fill-rule="evenodd" clip-rule="evenodd" d="M21.3096 0.140757C9.33696 1.48308 0 11.6591 0 23.9927C0 37.2336 10.7616 48 23.9976 48C37.236 48 48 37.2336 48 23.9927C48 11.8367 38.9208 1.78956 27.1944 0.217798C27.1944 0.217798 23.9189 -0.215956 21.3094 0.140781L21.3096 0.140757ZM22.4009 3.38581V11.4666C20.1095 11.3857 17.9184 11.1429 15.8933 10.76C16.1974 10.0469 16.5163 9.36017 16.8641 8.73393C18.4672 5.8472 20.4031 4.04648 22.4009 3.38576L22.4009 3.38581ZM25.8288 3.51977C26.009 3.54963 26.1921 3.57056 26.3711 3.60349C28.1763 4.39381 29.9111 6.10885 31.3689 8.73398C31.7102 9.34862 32.0236 10.0215 32.3229 10.7199C30.307 11.1128 28.1179 11.3678 25.8288 11.46L25.8288 3.51977ZM15.288 4.8861C14.784 5.57202 14.3016 6.2901 13.8696 7.06962C13.3704 7.96602 12.9264 8.93707 12.516 9.95035C11.412 9.62635 10.3848 9.25819 9.44664 8.85451C11.1432 7.22106 13.116 5.87682 15.288 4.8861V4.8861ZM33.5186 5.68984C35.5426 6.31914 37.0908 7.60161 38.55 8.85448C37.6716 9.23273 36.7188 9.58049 35.6916 9.89033C35.2884 8.89936 34.854 7.94776 34.3668 7.0696C34.1004 6.59008 33.8148 6.13552 33.5196 5.68984H33.5186ZM7.27464 11.3135C7.3104 11.4421 7.2156 11.1408 7.26024 11.272C8.49653 11.8492 9.96624 12.7716 11.4158 13.2057C10.6662 15.8858 10.2019 18.8303 10.0768 21.9429H3.10387C3.48859 17.9637 4.99195 14.3253 7.27579 11.3133L7.27464 11.3135ZM40.745 11.3423C43.0159 14.3493 44.5102 17.9762 44.8927 21.9417H38.1576C38.0316 18.8059 37.5614 15.8402 36.8019 13.144C38.1707 12.7243 39.535 11.9251 40.7103 11.3764C40.7616 11.2556 40.7031 11.461 40.7453 11.3423L40.745 11.3423ZM33.4742 13.9912C34.1563 16.3927 34.5981 19.0812 34.7262 21.9415H25.8285V14.8886C28.5217 14.7897 31.0948 14.4854 33.4741 13.9911L33.4742 13.9912ZM14.7449 14.0415C17.1298 14.5229 19.7071 14.8102 22.4006 14.8954V21.9416H13.5062C13.6334 19.1007 14.0707 16.4305 14.7448 14.0415L14.7449 14.0415ZM3.06864 25.3709H10.075C10.2034 28.569 10.6879 31.5937 11.4742 34.3326C9.93264 34.5328 7.28095 36.0921 7.14415 36.1687C4.45063 32.8783 3.36247 29.8879 3.06943 25.3687L3.06864 25.3709ZM13.5062 25.3709H22.4006V32.6581C19.7297 32.7424 17.173 33.0245 14.8051 33.4987C14.0948 31.0528 13.6375 28.301 13.5063 25.3708L13.5062 25.3709ZM25.8283 25.3709H34.7261C34.5941 28.3208 34.1323 31.0909 33.4139 33.549C31.0516 33.062 28.4989 32.7626 25.8284 32.6648L25.8283 25.3709ZM38.1571 25.3709H44.9258C44.6565 29.5232 43.4292 33.097 41.1017 36.2413C40.0128 35.5543 38.0256 34.8369 36.7411 34.393C37.5375 31.6383 38.0277 28.5922 38.1571 25.3712L38.1571 25.3709ZM22.4004 36.0875V43.9239C20.4036 43.2615 18.4668 41.4687 16.8636 38.5815C16.5516 38.0199 16.2636 37.4103 15.9876 36.7767C17.9868 36.4037 20.1454 36.1667 22.4014 36.0869L22.4004 36.0875ZM25.8283 36.0942C28.084 36.1842 30.2405 36.4308 32.232 36.8142C31.9592 37.4339 31.6747 38.0307 31.3683 38.5824C29.765 41.4696 27.8269 43.2629 25.8282 43.9239L25.8283 36.0942ZM12.6058 37.5777C12.9923 38.5115 13.4054 39.4142 13.8678 40.2468C14.5223 41.4254 15.2694 42.4953 16.0838 43.4484C13.4582 42.3811 11.0923 40.8103 9.12432 38.837C10.1714 38.3676 11.3407 37.945 12.6058 37.5778V37.5777ZM35.6033 37.638C36.7871 37.9906 37.8819 38.3938 38.8704 38.8369C36.9956 40.7167 34.7626 42.238 32.2858 43.301C33.0486 42.3864 33.7456 41.3613 34.3646 40.2467C34.8171 39.4318 35.2233 38.5498 35.6032 37.6379L35.6033 37.638Z" fill="white"/>
</svg>
