<svg width="71" height="86" viewBox="0 0 71 86" fill="none" xmlns="http://www.w3.org/2000/svg">
<g clip-path="url(#clip0_1_2)">
<path d="M0.758523 83V74.2727H2.60369V81.4787H6.34517V83H0.758523ZM9.29403 83H7.31676L10.3295 74.2727H12.7074L15.7159 83H13.7386L11.5526 76.267H11.4844L9.29403 83ZM9.17045 79.5696H13.8409V81.0099H9.17045V79.5696ZM17.8519 83L15.3548 74.2727H17.3704L18.815 80.3366H18.8874L20.4812 74.2727H22.207L23.7965 80.3494H23.8732L25.3178 74.2727H27.3335L24.8363 83H23.038L21.3761 77.294H21.3079L19.6502 83H17.8519ZM33.6158 77.0938C33.5561 76.8864 33.4723 76.7031 33.3643 76.544C33.2564 76.3821 33.1243 76.2457 32.968 76.1349C32.8146 76.0213 32.6385 75.9347 32.4396 75.875C32.2436 75.8153 32.0263 75.7855 31.7876 75.7855C31.3416 75.7855 30.9496 75.8963 30.6115 76.1179C30.2763 76.3395 30.0149 76.6619 29.8274 77.0852C29.6399 77.5057 29.5462 78.0199 29.5462 78.6278C29.5462 79.2358 29.6385 79.7528 29.8232 80.179C30.0078 80.6051 30.2692 80.9304 30.6072 81.1548C30.9453 81.3764 31.3445 81.4872 31.8047 81.4872C32.2223 81.4872 32.5788 81.4134 32.8743 81.2656C33.1726 81.1151 33.3999 80.9034 33.5561 80.6307C33.7152 80.358 33.7947 80.0355 33.7947 79.6634L34.1697 79.7188H31.9197V78.3295H35.5717V79.429C35.5717 80.196 35.4098 80.8551 35.0859 81.4062C34.7621 81.9545 34.3161 82.3778 33.7479 82.6761C33.1797 82.9716 32.5291 83.1193 31.7962 83.1193C30.978 83.1193 30.2592 82.9389 29.6399 82.5781C29.0206 82.2145 28.5376 81.6989 28.1911 81.0312C27.8473 80.3608 27.6754 79.5653 27.6754 78.6449C27.6754 77.9375 27.7777 77.3068 27.9822 76.7528C28.1896 76.196 28.4794 75.7244 28.8516 75.3381C29.2237 74.9517 29.657 74.6577 30.1513 74.456C30.6456 74.2543 31.1811 74.1534 31.7578 74.1534C32.2521 74.1534 32.7124 74.2259 33.1385 74.3707C33.5646 74.5128 33.9425 74.7145 34.272 74.9759C34.6044 75.2372 34.8757 75.5483 35.0859 75.9091C35.2962 76.267 35.4311 76.6619 35.4908 77.0938H33.6158ZM36.9577 83V74.2727H40.4009C41.0629 74.2727 41.6268 74.3991 42.0927 74.652C42.5586 74.902 42.9137 75.25 43.158 75.696C43.4052 76.1392 43.5288 76.6506 43.5288 77.2301C43.5288 77.8097 43.4038 78.321 43.1538 78.7642C42.9038 79.2074 42.5415 79.5526 42.0671 79.7997C41.5955 80.0469 41.0245 80.1705 40.354 80.1705H38.1594V78.6918H40.0558C40.4109 78.6918 40.7035 78.6307 40.9336 78.5085C41.1665 78.3835 41.3398 78.2116 41.4535 77.9929C41.57 77.7713 41.6282 77.517 41.6282 77.2301C41.6282 76.9403 41.57 76.6875 41.4535 76.4716C41.3398 76.2528 41.1665 76.0838 40.9336 75.9645C40.7006 75.8423 40.4052 75.7812 40.0472 75.7812H38.8029V83H36.9577ZM44.3949 75.794V74.2727H51.5625V75.794H48.8906V83H47.0668V75.794H44.3949ZM53.6378 83.0682C53.4276 83.0682 53.2472 82.9929 53.0966 82.8423C52.946 82.6918 52.8707 82.5114 52.8707 82.3011C52.8707 82.0909 52.946 81.9105 53.0966 81.7599C53.2472 81.6094 53.4276 81.5341 53.6378 81.5341C53.848 81.5341 54.0284 81.6094 54.179 81.7599C54.3295 81.9105 54.4048 82.0909 54.4048 82.3011C54.4048 82.4403 54.3693 82.5682 54.2983 82.6847C54.2301 82.8011 54.1378 82.8949 54.0213 82.9659C53.9077 83.0341 53.7798 83.0682 53.6378 83.0682Z" fill="white"/>
<path d="M56.3459 83V74.2727H59.2947C59.9794 74.2727 60.5391 74.3963 60.9737 74.6435C61.4112 74.8878 61.7351 75.2188 61.9453 75.6364C62.1555 76.054 62.2607 76.5199 62.2607 77.0341C62.2607 77.5483 62.1555 78.0156 61.9453 78.4361C61.7379 78.8565 61.4169 79.1918 60.9822 79.4418C60.5476 79.6889 59.9908 79.8125 59.3118 79.8125H57.1982V78.875H59.2777C59.7464 78.875 60.1229 78.794 60.407 78.6321C60.6911 78.4702 60.897 78.2514 61.0249 77.9759C61.1555 77.6974 61.2209 77.3835 61.2209 77.0341C61.2209 76.6847 61.1555 76.3722 61.0249 76.0966C60.897 75.821 60.6896 75.6051 60.4027 75.4489C60.1158 75.2898 59.7351 75.2102 59.2607 75.2102H57.4027V83H56.3459ZM64.4233 83.1193V82.1307H64.9688C65.179 82.1307 65.3551 82.0895 65.4972 82.0071C65.642 81.9247 65.7614 81.8182 65.8551 81.6875C65.9517 81.5568 66.0312 81.4205 66.0938 81.2784L66.2301 80.9545L63.2131 74.2727H64.3551L66.7585 79.6932L68.9574 74.2727H70.0824L67.0653 81.5852C66.946 81.858 66.8097 82.1108 66.6562 82.3438C66.5057 82.5767 66.2997 82.7642 66.0384 82.9062C65.7798 83.0483 65.429 83.1193 64.9858 83.1193H64.4233Z" fill="#F62626"/>
<path d="M5 20.5H45C47.4853 20.5 49.5 22.5147 49.5 25V54.2157C49.5 56.7016 47.4897 58.7157 45.0051 58.7157H44.9519H44.8986H44.8452H44.7916H44.738H44.6842H44.6303H44.5763H44.5222H44.468H44.4137H44.3592H44.3046H44.2499H44.1951H44.1402H44.0852H44.0301H43.9748H43.9195H43.864H43.8084H43.7528H43.697H43.6411H43.5851H43.529H43.4728H43.4165H43.36H43.3035H43.2469H43.1902H43.1334H43.0764H43.0194H42.9623H42.9051H42.8478H42.7903H42.7328H42.6752H42.6175H42.5597H42.5018H42.4438H42.3858H42.3276H42.2693H42.211H42.1525H42.094H42.0353H41.9766H41.9178H41.8589H41.7999H41.7409H41.6817H41.6225H41.5631H41.5037H41.4442H41.3847H41.325H41.2653H41.2054H41.1455H41.0855H41.0255H40.9653H40.9051H40.8448H40.7844H40.724H40.6634H40.6028H40.5422H40.4814H40.4206H40.3597H40.2987H40.2377H40.1765H40.1154H40.0541H39.9928H39.9314H39.8699H39.8084H39.7468H39.6851H39.6234H39.5616H39.4997H39.4378H39.3758H39.3137H39.2516H39.1895H39.1272H39.0649H39.0026H38.9401H38.8777H38.8151H38.7525H38.6899H38.6272H38.5644H38.5016H38.4387H38.3758H38.3128H38.2498H38.1867H38.1236H38.0604H37.9971H37.9339H37.8705H37.8071H37.7437H37.6802H37.6167H37.5531H37.4895H37.4258H37.3621H37.2984H37.2346H37.1707H37.1068H37.0429H36.979H36.915H36.8509H36.7868H36.7227H36.6585H36.5943H36.5301H36.4658H36.4015H36.3372H36.2728H36.2084H36.144H36.0795H36.015H35.9504H35.8859H35.8213H35.7566H35.692H35.6273H35.5626H35.4978H35.4331H35.3683H35.3035H35.2386H35.1737H35.1089H35.0439H34.979H34.914H34.8491H34.784H34.719H34.654H34.5889H34.5238H34.4588H34.3936H34.3285H34.2634H34.1982H34.133H34.0678H34.0026H33.9374H33.8722H33.8069H33.7417H33.6764H33.6111H33.5459H33.4806H33.4153H33.35H33.2847H33.2193H33.154H33.0887H33.0233H32.958H32.8927H32.8273H32.762H32.6966H32.6313H32.5659H32.5005H32.4352H32.3698H32.3045H32.2392H32.1738H32.1085H32.0431H31.9778H31.9125H31.8472H31.7819H31.7166H31.6513H31.586H31.5207H31.4554H31.3902H31.3249H31.2597H31.1945H31.1292H31.064H30.9989H30.9337H30.8685H30.8034H30.7383H30.6732H30.6081H30.543H30.478H30.4129H30.3479H30.2829H30.2179H30.153H30.0881H30.0232H29.9583H29.8934H29.8286H29.7638H29.699H29.6342H29.5695H29.5048H29.4401H29.3755H29.3109H29.2463H29.1817H29.1172H29.0527H28.9882H28.9238H28.8594H28.7951H28.7307H28.6664H28.6022H28.538H28.4738H28.4097H28.3455H28.2815H28.2175H28.1535H28.0895H28.0256H27.9618H27.8979H27.8342H27.7704H27.7067H27.6431H27.5795H27.5159H27.4524H27.389H27.3256H27.2622H27.1989H27.1356H27.0724H27.0092H26.9461H26.8831H26.82H26.7571H26.6942H26.6313H26.5685H26.5058H26.4431H26.3805H26.3179H26.2554H26.193H26.1306H26.0683H26.006H25.9438H25.8816H25.8195H25.7575H25.6955H25.6337H25.5718H25.51H25.4483H25.3867H25.3251H25.2636H25.2022H25.1408H25.0795H25.0183H24.9572H24.8961H24.8351H24.7741H24.7133H24.6525H24.5917H24.5311H24.4705H24.41H24.3496H24.2893H24.229H24.1688H24.1087H24.0487H23.9887H23.9289H23.8691H23.8094H23.7497H23.6902H23.6307H23.5714H23.5121H23.4529H23.3938H23.3347H23.2758H23.2169H23.1582H23.0995H23.0409H22.9824H22.924H22.8657H22.8074H22.7493H22.6913H22.6333H22.5755H22.5177H22.4601H22.4025H22.345H22.2876H22.2304H22.1732H22.1161H22.0591H22.0023H21.9455H21.8888H21.8322H21.7758H21.7194H21.6631H21.607H21.5509H21.495H21.4391H21.3834H21.3278H21.2722H21.2168H21.1615H21.1063H21.0512H20.9963H20.9414H20.8867H20.832H20.7775H20.7231H20.6688H20.6146H20.5606H20.5066H20.4528H20.3991H20.3455H20.292H20.2386H20.1854H20.1323H20.0793H20.0264H19.9736H19.921H19.8685H19.8161H19.7639H19.7117H19.6597H19.6078H19.5561H19.5045H19.453H19.4016H19.3504H19.2992H19.2483H19.1974H19.1467H19.0961H19.0457H18.9953H18.9452H18.8951H18.8452H18.7954H18.7458H18.6963H18.6469H18.5977H18.5486H18.4996H18.4508H18.4022H18.3536H18.3052H18.257H18.2089H18.1609H18.1131H18.0655H18.0179H17.9706H17.9233H17.8762H17.8293H17.7825H17.7359H17.6894H17.643H17.5969H17.5508H17.5049H17.4592H17.4136H17.3682H17.3229H17.2778H17.2329H17.1881H17.1434H17.0989H17.0546H17.0104H16.9664H16.9225H16.8788H16.8353H16.7919H16.7487H16.7057H16.6628H16.6201H16.5775H16.5351H16.4929H16.4508H16.409H16.3672H16.3257H16.2843H16.2431H16.202H16.1611H16.1204H16.0799H16.0395H15.9993H15.9593H15.9195H15.8798H15.8403H15.801H15.7619H15.7229H15.6841H15.6455H15.6071H15.5688H15.5307H15.4928H15.4551H15.4176H15.3803H15.3431H15.3061H15.2843H15.2624H15.2405H15.2186H15.1968H15.1749H15.153H15.1312H15.1093H15.0875H15.0656H15.0437H15.0219H15H14.9781H14.9563H14.9344H14.9125H14.8907H14.8688H14.847H14.8251H14.8032H14.7814H14.7595H14.7377H14.7158H14.694H14.6721H14.6503H14.6284H14.6066H14.5847H14.5629H14.541H14.5192H14.4974H14.4755H14.4537H14.4318H14.41H14.3882H14.3663H14.3445H14.3227H14.3009H14.279H14.2572H14.2354H14.2136H14.1917H14.1699H14.1481H14.1263H14.1045H14.0827H14.0609H14.0391H14.0173H13.9955H13.9737H13.9519H13.9301H13.9083H13.8865H13.8648H13.843H13.8212H13.7994H13.7777H13.7559H13.7341H13.7124H13.6906H13.6688H13.6471H13.6253H13.6036H13.5818H13.5601H13.5384H13.5166H13.4949H13.4732H13.4514H13.4297H13.408H13.3863H13.3646H13.3428H13.3211H13.2994H13.2777H13.2561H13.2344H13.2127H13.191H13.1693H13.1476H13.126H13.1043H13.0826H13.061H13.0393H13.0177H12.996H12.9744H12.9527H12.9311H12.9095H12.8879H12.8662H12.8446H12.823H12.8014H12.7798H12.7582H12.7366H12.715H12.6934H12.6718H12.6503H12.6287H12.6071H12.5856H12.564H12.5425H12.5209H12.4994H12.4778H12.4563H12.4348H12.4133H12.3918H12.3703H12.3487H12.3273H12.3058H12.2843H12.2628H12.2413H12.2198H12.1984H12.1769H12.1555H12.134H12.1126H12.0911H12.0697H12.0483H12.0269H12.0055H11.984H11.9626H11.9413H11.9199H11.8985H11.8771H11.8557H11.8344H11.813H11.7917H11.7703H11.749H11.7277H11.7063H11.685H11.6637H11.6424H11.6211H11.5998H11.5785H11.5573H11.536H11.5147H11.4935H11.4722H11.451H11.4297H11.4085H11.3873H11.3661H11.3449H11.3237H11.3025H11.2813H11.2601H11.2389H11.2178H11.1966H11.1755H11.1543H11.1332H11.1121H11.091H11.0698H11.0487H11.0276H11.0066H10.9855H10.9644H10.9434H10.9223H10.9013H10.8802H10.8592H10.8382H10.8171H10.7961H10.7751H10.7542H10.7332H10.7122H10.6912H10.6703H10.6493H10.6284H10.6075H10.5866H10.5656H10.5447H10.5238H10.503H10.4821H10.4612H10.4404H10.4195H10.3987H10.3778H10.357H10.3362H10.3154H10.2946H10.2738H10.253H10.2323H10.2115H10.1908H10.17H10.1493H10.1286H10.1079H10.0872H10.0665H10.0458H10.0251H10.0044H9.9838H9.96315H9.94252H9.9219H9.90129H9.88068H9.86009H9.83951H9.81894H9.79837H9.77782H9.75728H9.73675H9.71623H9.69571H9.67521H9.65472H9.63424H9.61377H9.59332H9.57287H9.55243H9.532H9.51159H9.49118H9.47079H9.4504H9.43003H9.40967H9.38932H9.36898H9.34865H9.32833H9.30802H9.28773H9.26744H9.24717H9.22691H9.20666H9.18642H9.16619H9.14597H9.12577H9.10557H9.08539H9.06522H9.04506H9.02492H9.00478H8.98466H8.96455H8.94444H8.92436H8.90428H8.88422H8.86416H8.84412H8.82409H8.80408H8.78407H8.76408H8.7441H8.72414H8.70418H8.68424H8.66431H8.64439H8.62448H8.60459H8.58471H8.56484H8.54499H8.52514H8.50531H8.4855H8.46569H8.4459H8.42612H8.40636H8.3866H8.36686H8.34714H8.32742H8.30772H8.28804H8.26836H8.2487H8.22905H8.20942H8.1898H8.17019H8.15059H8.13101H8.11144H8.09189H8.07235H8.05282H8.03331H8.01381H7.99432H7.97485H7.95539H7.93595H7.91652H7.8971H7.8777H7.85831H7.83893H7.81957H7.80023H7.7809H7.76158H7.74227H7.72298H7.70371H7.68445H7.6652H7.64597H7.62675H7.60755H7.58836H7.56919H7.55003H7.53088H7.51175H7.49264H7.47354H7.45445H7.43538H7.41633H7.39729H7.37826H7.35925H7.34025H7.32127H7.30231H7.28336H7.26442H7.2455H7.2266H7.20771H7.18884H7.16998H7.15114H7.13231H7.1135H7.0947H7.07592H7.05716H7.03841H7.01967H7.00096H6.98226H6.96357H6.9449H6.92625H6.90761H6.88899H6.87038H6.85179H6.83322H6.81466H6.79612H6.7776H6.75909H6.74059H6.72212H6.70366H6.68522H6.66679H6.64838H6.62999H6.61161H6.59325H6.57491H6.55658H6.53827H6.51998H6.5017H6.48344H6.4652H6.44698H6.42877H6.41058H6.3924H6.37425H6.35611H6.33798H6.31988H6.30179H6.28372H6.26567H6.24763H6.22961H6.21161H6.19363H6.17566H6.15771H6.13978H6.12187H6.10398H6.0861H6.06824H6.0504H6.03257H6.01477H5.99698H5.97921H5.96146H5.94373H5.92601H5.90831H5.89063H5.87297H5.85533H5.83771H5.8201H5.80251H5.78494H5.76739H5.74986H5.73235H5.71485H5.69738H5.67992H5.66248H5.64506H5.62766H5.61028H5.59291H5.57557H5.55824H5.54094H5.52365H5.50638H5.48913H5.4719H5.45469H5.4375H5.42033H5.40317H5.38604H5.36893H5.35183H5.33476H5.3177H5.30066H5.28365H5.26665H5.24967H5.23271H5.21578H5.19886H5.18196H5.16508H5.14822H5.13138H5.11457H5.09777H5.08099H5.06423H5.04749H5.03077H5.01408H4.9974C2.51246 58.7157 0.5 56.7013 0.5 54.2157V25C0.5 22.5147 2.51472 20.5 5 20.5Z" fill="#27374D" stroke="#08D9D6"/>
<path d="M5.60205 58.7353L5.60205 69.0718L21.2914 58.7353H5.60205Z" stroke="#08D9D6"/>
<path d="M6.12244 68.0392L24.4898 56.2745H6.12244L6.12244 68.0392Z" fill="#27374D"/>
<path d="M26 0.5H66C68.4853 0.5 70.5 2.51472 70.5 5V34.2157C70.5 36.701 68.4853 38.7157 66 38.7157H26C23.5147 38.7157 21.5 36.701 21.5 34.2157V5C21.5 2.51472 23.5147 0.5 26 0.5Z" fill="#27374D" stroke="#F62626"/>
<path d="M66 50L48.5 38.2353H66V50Z" fill="#F62626"/>
<path d="M65 48.0392L47 36.2745H65V48.0392Z" fill="#27374D"/>
</g>
<defs>
<clipPath id="clip0_1_2">
<rect width="71" height="86" fill="white"/>
</clipPath>
</defs>
</svg>
